<svg xmlns="http://www.w3.org/2000/svg" viewBox="0 0 382.61 84.07"><defs><style>.cls-1{fill:#1a733a;}</style></defs><g id="Layer_2" data-name="Layer 2"><g id="Layer_1-2" data-name="Layer 1"><path class="cls-1" d="M178.36,73.89c-.1-.33-.15-.54-.27-.86-.38-1-.75-1.18-2.15-1.18h-2c-.51,0-.57.06-.57.58v4.64h2.52c1.42,0,1.52-.14,1.83-1.5H178v3.59h-.25c-.29-1.38-.45-1.54-1.87-1.54h-2.48v4c0,1.52.07,1.72,1.81,2v.23h-4.85v-.23c1.5-.19,1.67-.39,1.67-2V73.51c0-1.58-.13-1.72-1.67-2v-.23H176c1.79,0,2.29,0,2.5,0,0,.5,0,1.85.12,2.56Z"/><path class="cls-1" d="M183.21,83.84h-3.92v-.23c1.11-.18,1.19-.27,1.19-1.68V78.07c0-1.23,0-1.35-1-1.58V76.3a8.52,8.52,0,0,0,2.29-.81c0,.34,0,1.36-.06,2.08.46-.81,1.44-2,2.33-2a.87.87,0,0,1,.94.75,1.14,1.14,0,0,1-.48.88.31.31,0,0,1-.44,0,1.21,1.21,0,0,0-.87-.48c-.38,0-1,.42-1.48,1.39v3.82c0,1.37.1,1.47,1.48,1.68Z"/><path class="cls-1" d="M192.06,82.22a4.22,4.22,0,0,1-2.86,1.85c-2.28,0-3.58-1.9-3.58-4a4.62,4.62,0,0,1,1.15-3.18,3.87,3.87,0,0,1,2.68-1.32,2.63,2.63,0,0,1,2.65,2.55c0,.29,0,.47-.1.49a36.91,36.91,0,0,1-5.19.28c-.06,3.08,1.63,4.12,3,4.12a3,3,0,0,0,2.1-1Zm-3.15-6.14c-.95,0-1.79.72-2,2.31,1.15,0,3.33,0,3.71,0,.1,0,.13-.12.13-.31A1.8,1.8,0,0,0,188.91,76.08Z"/><path class="cls-1" d="M198,77.78c-.35-1.35-1.08-1.83-2-1.83a1.18,1.18,0,0,0-1.27,1.31c0,.94.67,1.35,1.59,1.83,1.35.67,2.14,1.29,2.14,2.46a2.65,2.65,0,0,1-2.81,2.52,5.24,5.24,0,0,1-1.87-.37c-.09-.3-.32-1.53-.38-2l.23-.05A2.45,2.45,0,0,0,196,83.69a1.32,1.32,0,0,0,1.42-1.41c0-.92-.56-1.4-1.5-1.92-1.12-.64-2.12-1.22-2.14-2.5a2.41,2.41,0,0,1,2.64-2.29,12,12,0,0,1,1.62.19c0,.36.19,1.63.23,1.94Z"/><path class="cls-1" d="M204.4,83.84v-.23c1.09-.18,1.27-.31,1.27-1.7v-3c0-1.6-.45-2.45-1.77-2.45a3,3,0,0,0-2,.94v4.56c0,1.31.11,1.54,1.23,1.7v.23h-3.64v-.23c1-.14,1.17-.29,1.17-1.64V72.39c0-1.42-.25-1.42-1.23-1.6V70.6a8.67,8.67,0,0,0,2.52-.65c0,.38,0,1.56,0,2.4V77a3.92,3.92,0,0,1,2.75-1.38c1.31,0,2.31.86,2.31,3.05v3.49c0,1.21.09,1.29,1.09,1.5v.23Z"/><path class="cls-1" d="M214.11,75.8v-.31A5.67,5.67,0,0,1,216,70.81a4,4,0,0,1,2-.86,2,2,0,0,1,1.4.55.52.52,0,0,1,.08.64,1.28,1.28,0,0,1-.38.5c-.18.1-.29.12-.45,0a2.44,2.44,0,0,0-1.69-.75c-1.54,0-1.6,1.91-1.6,4.23v.7h1.87a.56.56,0,0,1-.13.52h-1.74v5.31c0,1.69.14,1.8,1.54,2v.23h-4.08v-.23c1.14-.14,1.29-.27,1.29-1.71V76.32h-1.23l-.06-.1.22-.42Z"/><path class="cls-1" d="M221.77,83.84h-3.92v-.23c1.11-.18,1.19-.27,1.19-1.68V78.07c0-1.23,0-1.35-1-1.58V76.3a8.52,8.52,0,0,0,2.29-.81c0,.34,0,1.36-.06,2.08.46-.81,1.44-2,2.33-2a.87.87,0,0,1,.94.75,1.14,1.14,0,0,1-.48.88.31.31,0,0,1-.44,0,1.21,1.21,0,0,0-.87-.48c-.38,0-1,.42-1.48,1.39v3.82c0,1.37.1,1.47,1.48,1.68Z"/><path class="cls-1" d="M228.14,75.57A3.91,3.91,0,0,1,232,79.66a4.1,4.1,0,0,1-3.91,4.41,4,4,0,0,1-3.94-4.1A4.18,4.18,0,0,1,228.14,75.57Zm-.23.4c-1.35,0-2.27,1.44-2.27,3.41,0,2.57,1.15,4.25,2.73,4.25,1.21,0,2.19-.91,2.19-3.62C230.56,77.93,229.66,76,227.91,76Z"/><path class="cls-1" d="M242.9,83.84v-.23c1.23-.18,1.25-.31,1.25-1.87v-3c0-1.21-.31-2.25-1.66-2.25a3,3,0,0,0-2,.94,4.15,4.15,0,0,1,.06.85V82c0,1.33.08,1.45,1.16,1.64v.23h-3.62v-.23c1.12-.19,1.21-.33,1.21-1.64V78.74c0-1.42-.38-2.25-1.67-2.25a3.06,3.06,0,0,0-2,.94v4.48c0,1.35,0,1.51,1.24,1.7v.23H233.1v-.23c1.22-.16,1.27-.33,1.27-1.68V78.07c0-1.27-.07-1.35-1-1.58V76.3a7.64,7.64,0,0,0,2.27-.81c0,.69,0,1.23,0,1.52.37-.25.78-.58,1.26-.91a2.76,2.76,0,0,1,1.5-.53,2,2,0,0,1,2,1.52,16.46,16.46,0,0,1,1.58-1.1,2.25,2.25,0,0,1,1.29-.42c1.34,0,2.15,1.07,2.15,2.79v3.5c0,1.5.1,1.56,1.12,1.75v.23Z"/><path class="cls-1" d="M254.67,83.88a1.44,1.44,0,0,1-.59.19c-1.14,0-1.7-.77-1.7-2.19V76.32h-1.26l0-.08.23-.44h1.07V74a14.68,14.68,0,0,0,1.16-1.1l.13,0c0,.35,0,1.37,0,2.91h2.06a.72.72,0,0,1-.12.52h-1.94v5c0,1.58.55,1.88,1.19,1.88a2.42,2.42,0,0,0,1.1-.28l.07.25Z"/><path class="cls-1" d="M261.43,83.84v-.23c1.1-.18,1.27-.31,1.27-1.7v-3c0-1.6-.44-2.45-1.77-2.45a3,3,0,0,0-2,.94v4.56c0,1.31.11,1.54,1.23,1.7v.23h-3.64v-.23c1-.14,1.18-.29,1.18-1.64V72.39c0-1.42-.25-1.42-1.23-1.6V70.6A8.77,8.77,0,0,0,259,70c0,.38-.06,1.56-.06,2.4V77a3.94,3.94,0,0,1,2.75-1.38c1.31,0,2.31.86,2.31,3.05v3.49c0,1.21.1,1.29,1.1,1.5v.23Z"/><path class="cls-1" d="M272.59,82.22a4.23,4.23,0,0,1-2.87,1.85c-2.27,0-3.58-1.9-3.58-4a4.63,4.63,0,0,1,1.16-3.18A3.87,3.87,0,0,1,270,75.57a2.64,2.64,0,0,1,2.66,2.55c0,.29,0,.47-.1.49a37,37,0,0,1-5.19.28C267.28,82,269,83,270.34,83a3,3,0,0,0,2.1-1Zm-3.16-6.14c-.94,0-1.79.72-2,2.31,1.16,0,3.33,0,3.72,0,.09,0,.13-.12.13-.31A1.81,1.81,0,0,0,269.43,76.08Z"/><path class="cls-1" d="M285.25,73.89c-.1-.33-.15-.54-.27-.86-.38-1-.75-1.18-2.15-1.18h-2c-.52,0-.57.06-.57.58v4.64h2.52c1.42,0,1.52-.14,1.83-1.5h.25v3.59h-.25c-.29-1.38-.45-1.54-1.87-1.54h-2.48v4c0,1.52.07,1.72,1.81,2v.23h-4.85v-.23c1.5-.19,1.67-.39,1.67-2V73.51c0-1.58-.13-1.72-1.67-2v-.23h5.67c1.79,0,2.29,0,2.5,0a24.23,24.23,0,0,0,.12,2.56Z"/><path class="cls-1" d="M292,84.07a1.33,1.33,0,0,1-.86-.38,1.48,1.48,0,0,1-.42-.87,6.73,6.73,0,0,1-2.14,1.25A2.14,2.14,0,0,1,286.46,82a1.69,1.69,0,0,1,1.37-1.69,17.85,17.85,0,0,0,2.9-1.14v-.57c0-1.39-.67-2.29-1.71-2.29a1.09,1.09,0,0,0-.84.34,3.39,3.39,0,0,0-.52,1.22.38.38,0,0,1-.37.3.73.73,0,0,1-.67-.67c0-.15.13-.31.46-.56a9.26,9.26,0,0,1,2.63-1.32,2.38,2.38,0,0,1,1.41.46,2.76,2.76,0,0,1,.83,2.34v3.45c0,.92.3,1.23.67,1.23a.94.94,0,0,0,.6-.19l.11.25Zm-1.27-4.6c-.32.21-1.32.6-1.84.85s-1.1.65-1.1,1.34a1.4,1.4,0,0,0,1.41,1.45,2.06,2.06,0,0,0,1.5-.66C290.7,81.53,290.73,80.47,290.73,79.47Z"/><path class="cls-1" d="M298.05,83.84h-3.93v-.23c1.12-.18,1.19-.27,1.19-1.68V78.07c0-1.23,0-1.35-1-1.58V76.3a8.4,8.4,0,0,0,2.29-.81c0,.34,0,1.36-.05,2.08.46-.81,1.44-2,2.32-2a.88.88,0,0,1,.95.75,1.17,1.17,0,0,1-.48.88.32.32,0,0,1-.45,0,1.21,1.21,0,0,0-.86-.48c-.39,0-1,.42-1.48,1.39v3.82c0,1.37.09,1.47,1.48,1.68Z"/><path class="cls-1" d="M310.25,83.84v-.23c1.23-.18,1.25-.31,1.25-1.87v-3c0-1.21-.31-2.25-1.66-2.25a2.94,2.94,0,0,0-2,.94,4.15,4.15,0,0,1,.06.85V82c0,1.33.08,1.45,1.15,1.64v.23H305.4v-.23c1.11-.19,1.21-.33,1.21-1.64V78.74c0-1.42-.39-2.25-1.67-2.25a3,3,0,0,0-2,.94v4.48c0,1.35,0,1.51,1.23,1.7v.23h-3.75v-.23c1.21-.16,1.27-.33,1.27-1.68V78.07c0-1.27-.08-1.35-1-1.58V76.3a7.74,7.74,0,0,0,2.27-.81c0,.69,0,1.23,0,1.52.37-.25.77-.58,1.25-.91a2.79,2.79,0,0,1,1.5-.53,2,2,0,0,1,2,1.52,17.77,17.77,0,0,1,1.57-1.1,2.29,2.29,0,0,1,1.29-.42c1.35,0,2.16,1.07,2.16,2.79v3.5c0,1.5.09,1.56,1.11,1.75v.23Z"/><path class="cls-1" d="M62.63,20.18A3.7,3.7,0,0,0,65.44,16a51,51,0,0,0-1.37-4.92c-.86,1-1.69,1.83-2.42,2.77A8.72,8.72,0,0,0,60.36,16a3.28,3.28,0,0,0,1.33,4.19c.43-1.62.87-3.22,1.3-4.82l.15,0-.27,2.42Q62.75,19,62.63,20.18Z"/><path class="cls-1" d="M24.51,15.82c-.75-1.9-2.36-3.13-3.57-4.72-.46,1.43-.94,2.77-1.31,4.13a3.81,3.81,0,0,0,2.55,4.93c-.08-1.61-.16-3.17-.24-4.73H22l1.18,4.83A3.53,3.53,0,0,0,24.51,15.82Z"/><path class="cls-1" d="M25.27,41.73l.22-.08a2.94,2.94,0,0,1-.26-2.88,4.1,4.1,0,0,0-1.57-4.83l-2.92-2.21c0,.39-.11.76-.14,1.13a32.51,32.51,0,0,0-.26,4,3.38,3.38,0,0,0,3.29,3L22.27,35.6c.59,1,1.16,2,1.65,3S24.82,40.69,25.27,41.73Z"/><path class="cls-1" d="M64.6,36.69a40.56,40.56,0,0,0-.2-5c-1.27,1-2.36,1.73-3.4,2.58a3.7,3.7,0,0,0-1.46,3.83c.28,1.24.69,2.47-.22,3.66l.18,0c1-2.07,2-4.13,3-6.2l.12.05-1.31,4.39C63.36,39.62,64.44,38.65,64.6,36.69Z"/><path class="cls-1" d="M6.81,30.64A6.89,6.89,0,0,1,10.33,30c-.64-.59-1.34-1.15-1.95-1.79C6.23,26,3.23,26.41.82,27.94A4.61,4.61,0,0,0,6.81,30.64Z"/><path class="cls-1" d="M74.57,30a9.72,9.72,0,0,1,3.86.7,4.5,4.5,0,0,0,5.68-2.79,9.81,9.81,0,0,0-.86-.48c-2.12-.91-4.23-1.31-6.19.36C76.22,28.51,75.42,29.26,74.57,30Z"/><path class="cls-1" d="M39.18,7c1.08.8,2.33,1.38,3.06,2.65,0-1.19.07-2.29,0-3.38A7.77,7.77,0,0,0,41.66,4c-.56-1.32-1.22-2.6-1.9-4-.44.5-.93,1-1.34,1.53A3.61,3.61,0,0,0,39.18,7Z"/><path class="cls-1" d="M45.48,7.14c3-1.89,2.33-5.21-.36-7-.55,1.16-1.14,2.32-1.65,3.5a7.37,7.37,0,0,0-.61,2c-.14,1.32-.15,2.66-.22,4.15A7.86,7.86,0,0,1,45.48,7.14Z"/><path class="cls-1" d="M44.4,13.53c.08.27.42.66.61.64a4.38,4.38,0,0,0,3.38-1.68C49.49,11,49.5,9.16,49.66,7.4l-.16-.19c-1.14.55-2.34,1-3.42,1.66A3.93,3.93,0,0,0,44.4,13.53Z"/><path class="cls-1" d="M39.63,14.19a.53.53,0,0,0,.69-.44,4.35,4.35,0,0,0-.58-3.89c-1.09-1.49-2.8-1.93-4.45-2.63A11,11,0,0,0,36,11.49,4.49,4.49,0,0,0,39.63,14.19Z"/><path class="cls-1" d="M71.34,40.27c.62.08,1.22.27,1.84.39A4.24,4.24,0,0,0,77.93,38c-.58-.27-1.16-.57-1.76-.79a4.51,4.51,0,0,0-4.67.68c-1,.8-1.94,1.62-2.64,2.2C69.46,40.1,70.41,40.14,71.34,40.27Z"/><path class="cls-1" d="M30.33,10.74a6.68,6.68,0,0,1,2.19-2.6,4.89,4.89,0,0,0,.76-6.32,5.49,5.49,0,0,0-3.36,5.93C30.11,8.78,30.21,9.83,30.33,10.74Z"/><path class="cls-1" d="M11.62,40.7c.5-.08,1-.2,1.48-.31a7,7,0,0,1,3.33-.26c-.51-.32-1-.6-1.53-1S14,38.3,13.5,37.9A5.12,5.12,0,0,0,7,38.07c.22.3.43.62.66.91A4,4,0,0,0,11.62,40.7Z"/><path class="cls-1" d="M54.49,10.7c.11-.84.18-1.86.38-2.84a5.4,5.4,0,0,0-3.09-6,4.7,4.7,0,0,0,.11,5.79C52.82,8.69,54.14,9.44,54.49,10.7Z"/><path class="cls-1" d="M73.07,25.44c-.23,1.32-.11,2.77-1.29,3.69,1-.53,2-1.09,3.08-1.61a5.7,5.7,0,0,0,2.93-5.86A4.54,4.54,0,0,0,73.07,25.44Z"/><path class="cls-1" d="M9.91,27.46c.95.52,1.94,1,2.89,1.44A4.24,4.24,0,0,1,12,26.26c-.28-2.82-1.59-4.22-4.26-4.61-.47-.06-.63.08-.6.52s0,.71.1,1.06A5.41,5.41,0,0,0,9.91,27.46Z"/><path class="cls-1" d="M12.64,55.76a4.44,4.44,0,0,0-4,3.77c-.15,1.13-.28,2.27-.42,3.33.51-.36,1.08-.77,1.66-1.16a19.39,19.39,0,0,0,2-1.31,4.36,4.36,0,0,0,1.39-4C13.17,56.07,13.12,55.73,12.64,55.76Z"/><path class="cls-1" d="M71.33,35.67a6.19,6.19,0,0,0,2.27-.21c1.9-.64,2.79-2.28,3.76-4.15-1.22,0-2.27-.08-3.3,0a3.74,3.74,0,0,0-3.48,3.33C70.49,35.35,70.63,35.64,71.33,35.67Z"/><path class="cls-1" d="M72.79,55.83c-.91-.2-1.05-.09-1.12.85A4.46,4.46,0,0,0,73.9,61l2.73,1.82c-.09-.91-.2-1.92-.3-2.94A4.29,4.29,0,0,0,72.79,55.83Z"/><path class="cls-1" d="M12.18,31.71a8,8,0,0,0-4.47-.27A7.78,7.78,0,0,0,10.31,35a4.26,4.26,0,0,0,3.29.68c.36-.08.65-.23.62-.65A3.75,3.75,0,0,0,12.18,31.71Z"/><path class="cls-1" d="M18,34.28l.15,0A4,4,0,0,1,19.83,31a4.88,4.88,0,0,0,1-1c1.35-1.83.53-3.78.35-5.88-.85.87-1.61,1.57-2.27,2.34a4.12,4.12,0,0,0-1,3.74A7.56,7.56,0,0,1,18,33.11,6.52,6.52,0,0,0,18,34.28Z"/><path class="cls-1" d="M47.81,16.65a2.33,2.33,0,0,1-1.12,1.72c.66-.1,1.42-.23,2.18-.31a3.46,3.46,0,0,0,3.05-1.8c.66-1.46,1.13-3,1.69-4.56-1.06.56-2,1.13-2.94,1.56A4.4,4.4,0,0,0,47.81,16.65Z"/><path class="cls-1" d="M67.55,17.06a1.67,1.67,0,0,1-.14,1.56c-.23.37-.48.73-.72,1.09l0,.07a3.11,3.11,0,0,0,.49-.54,7,7,0,0,1,1.94-2.1,3.32,3.32,0,0,0,1.38-2.32c.16-1.71.21-3.42.31-5.05-.72.66-1.47,1.29-2.16,2A4.62,4.62,0,0,0,67.55,17.06Z"/><path class="cls-1" d="M32.72,15.73a3.59,3.59,0,0,0,3.36,2.34c.76.06,1.51.22,2.17.31-.82-.67-.85-.66-1.18-1.91a4.56,4.56,0,0,0-2.46-3c-1-.53-2-1.11-3.19-1.72C31.86,13.09,32.22,14.44,32.72,15.73Z"/><path class="cls-1" d="M67.11,28.94c-.24-2.14-1.76-3.41-3.31-4.76-.1.54-.17,1-.26,1.4-.38,2-.31,3.9,1.51,5.28a3.94,3.94,0,0,1,1.72,3.57H67V32.85c0-.78,0-1.57,0-2.35A11.89,11.89,0,0,0,67.11,28.94Z"/><path class="cls-1" d="M15.27,16.59c.87.89,1.76,1.74,2.65,2.62a2.57,2.57,0,0,1-.35-2.91,3.39,3.39,0,0,0-.32-3.25c-.9-1.21-1.95-2.32-3-3.54,0,1.56,0,2.94,0,4.31A3.87,3.87,0,0,0,15.27,16.59Z"/><path class="cls-1" d="M15.89,21A4.06,4.06,0,0,0,13,24.93c2.62-.1,5.1-.57,7.05-2.53A3.64,3.64,0,0,0,15.89,21Z"/><path class="cls-1" d="M68.94,21a3.61,3.61,0,0,0-4,1.42c1.92,2,4.35,2.49,7,2.48A4.31,4.31,0,0,0,68.94,21Z"/><path class="cls-1" d="M26.79,39.42a.8.8,0,0,0,.47,1.07,3.4,3.4,0,0,0,2.74.15c1.7-.62,2.58-2,3.46-3.68-1.21,0-2.43-.08-3.63,0A3.36,3.36,0,0,0,26.79,39.42Z"/><path class="cls-1" d="M55.65,37.11a33.91,33.91,0,0,0-4.17,0,8.65,8.65,0,0,0,2.64,3.13,3.47,3.47,0,0,0,3.64.24.72.72,0,0,0,.48-.94A3,3,0,0,0,55.65,37.11Z"/><path class="cls-1" d="M26.15,37c3.62-1.9,4.32-4.84,3.17-6.83C25.86,31.15,25.14,33.73,26.15,37Z"/><path class="cls-1" d="M55.7,30.22c-1.3,2.55,0,5.27,3.09,6.75C59.62,33.07,58.62,30.86,55.7,30.22Z"/><path class="cls-1" d="M81.77,33.51a3.4,3.4,0,0,0-1.66,5,.59.59,0,0,0,.78.31,3.47,3.47,0,0,0,2.35-2.71,9.16,9.16,0,0,1,1.41-3.5C83.69,32.93,82.71,33.16,81.77,33.51Z"/><path class="cls-1" d="M2.09,37a3.06,3.06,0,0,0,2,1.8.89.89,0,0,0,.75-.31,3.31,3.31,0,0,0-1.42-4.87c-1-.41-2.07-.72-3.11-1.08A7.24,7.24,0,0,1,1.66,35.8,5.78,5.78,0,0,0,2.09,37Z"/><path class="cls-1" d="M6.74,51.81c-1.81-.56-3.59-.09-5.39.08l-.08.18c.92.84,1.8,1.74,2.77,2.52A2.57,2.57,0,0,0,7,54.91a1.79,1.79,0,0,0,1.2-1.69C8.11,52.4,7.44,52,6.74,51.81Z"/><path class="cls-1" d="M77.54,52.19a1.25,1.25,0,0,0-.35,2,2.5,2.5,0,0,0,3.32.64,9.68,9.68,0,0,0,3.09-3c-1.42-.09-2.83-.25-4.25-.25A4,4,0,0,0,77.54,52.19Z"/><path class="cls-1" d="M25.94,10.19A3.44,3.44,0,0,0,27.81,8.5c.39-.7.24-1.08-.51-1.34a4.1,4.1,0,0,0-3.93.54c-.86.62-1.69,1.28-2.62,2C22.47,10.31,24.15,10.85,25.94,10.19Z"/><path class="cls-1" d="M52.08,19.55a3.15,3.15,0,0,0-3.22.7A1.09,1.09,0,0,0,49,22.11a3.36,3.36,0,0,0,2.72.66A11.47,11.47,0,0,0,55.85,21C54.5,20.45,53.32,19.92,52.08,19.55Z"/><path class="cls-1" d="M12.68,44.75a3.79,3.79,0,0,0-4.19,1c-.82.91-1.52,1.92-2.25,2.86.94-.07,1.92-.12,2.89-.24a5.09,5.09,0,0,0,4-2.41C13.52,45.26,13.45,45.06,12.68,44.75Z"/><path class="cls-1" d="M59.8,10.39a9.24,9.24,0,0,0,4.36-.73c-1-.72-1.84-1.43-2.77-2a3.84,3.84,0,0,0-3.76-.44c-.77.3-.91.69-.48,1.41A3.61,3.61,0,0,0,59.8,10.39Z"/><path class="cls-1" d="M35.76,22.22a1.18,1.18,0,0,0,.12-2.08,3,3,0,0,0-3-.59c-1.29.39-2.53.93-3.8,1.41l-.05.2c1.21.51,2.39,1.08,3.62,1.51A3.39,3.39,0,0,0,35.76,22.22Z"/><path class="cls-1" d="M78.69,48.61,77.44,47c-.22-.29-.41-.59-.64-.86A4.17,4.17,0,0,0,72,44.79c-.46.23-.55.49-.29.94a5.06,5.06,0,0,0,3.62,2.53C76.47,48.45,77.62,48.5,78.69,48.61Z"/><path class="cls-1" d="M12.7,20.84A3.93,3.93,0,0,0,15,19.5c.55-.68.44-1.13-.33-1.53a3.55,3.55,0,0,0-4,.37c-.86.63-1.66,1.31-2.53,2A7.44,7.44,0,0,0,12.7,20.84Z"/><path class="cls-1" d="M69.77,18.75c-.1.29.4.86.75,1.19,1.54,1.51,4.7,1.14,6.27.36-.87-.69-1.73-1.43-2.64-2.09a3.28,3.28,0,0,0-3.22-.46A2,2,0,0,0,69.77,18.75Z"/><path class="cls-1" d="M7.59,43.11A2.15,2.15,0,0,0,5.9,41.37c-1.6-.42-3.1.1-4.61.46l-.11.24a26.38,26.38,0,0,0,2.36,2A3.4,3.4,0,0,0,7,44.32,1,1,0,0,0,7.59,43.11Z"/><path class="cls-1" d="M80.08,44.52c1.59-.26,2.61-1.4,3.68-2.81-1.48-.17-2.78-.4-4.09-.44a2.21,2.21,0,0,0-2.21,1.46c-.31.76-.14,1.34.61,1.58A4.32,4.32,0,0,0,80.08,44.52Z"/><path class="cls-1" d="M24.7,26.11c-1.69-.88-2-.6-2,1.14a4,4,0,0,0,2.62,3.84c.3.09.53.11.72-.24A3.45,3.45,0,0,0,24.7,26.11Z"/><path class="cls-1" d="M59.82,31.07A3.9,3.9,0,0,0,62.05,26a.72.72,0,0,0-.61-.33,3.32,3.32,0,0,0-2.83,3.55c.07.28.2.85.35,1.41S59.35,31.22,59.82,31.07Z"/><path class="cls-1" d="M80.69,48.62c.23.63.54.78,1.21.59A2.94,2.94,0,0,0,83.58,48,11.51,11.51,0,0,0,85,43.78c-1.05.48-2.08.9-3.05,1.41A2.71,2.71,0,0,0,80.69,48.62Z"/><path class="cls-1" d="M2.88,49.19c.65.29,1,.11,1.22-.54A2.55,2.55,0,0,0,3,45.25c-.94-.54-1.95-1-3-1.46a8.72,8.72,0,0,0,1.67,4.56A3.34,3.34,0,0,0,2.88,49.19Z"/><path class="cls-1" d="M33.32,26.52a3.27,3.27,0,0,0,3.28.72.73.73,0,0,0,.57-.84,2.16,2.16,0,0,0-1.61-2,8.87,8.87,0,0,0-4.06.06A25.43,25.43,0,0,0,33.32,26.52Z"/><path class="cls-1" d="M69.92,48.79c-.7.23-.84.49-.54,1.16a2.46,2.46,0,0,0,2.43,1.58,34.88,34.88,0,0,0,3.51-.5v-.26c-.82-.54-1.62-1.1-2.45-1.61A3.38,3.38,0,0,0,69.92,48.79Z"/><path class="cls-1" d="M49.68,24.39a2,2,0,0,0-1.5,1.15A2.1,2.1,0,0,0,48,27.05c.16.3.91.42,1.39.38,1.84-.15,2.91-1.36,3.74-2.95A8.32,8.32,0,0,0,49.68,24.39Z"/><path class="cls-1" d="M9.66,50.79a6.13,6.13,0,0,0,3.68.72,2.54,2.54,0,0,0,2.18-1.57c.27-.66.17-.92-.5-1.14a3.51,3.51,0,0,0-3.22.52C11.11,49.78,10.43,50.26,9.66,50.79Z"/><path class="cls-1" d="M18.76,10.54c.22,0,.62-.57.77-.95.72-1.8-.1-3.31-1-4.9a6.05,6.05,0,0,0-1.36,2.74,2.75,2.75,0,0,0,.46,2.33A2,2,0,0,0,18.76,10.54Z"/><path class="cls-1" d="M66.69,10.39a4.25,4.25,0,0,0,.91-1.46c.46-1.62-.33-2.92-1.35-4.34a25.32,25.32,0,0,0-1,2.72,3.17,3.17,0,0,0,.54,3C66.05,10.66,66.41,10.73,66.69,10.39Z"/><path class="cls-1" d="M68.42,54c4.2.42,6.39.18,7.13-.9h-.74A13.28,13.28,0,0,1,69,52.62c-1.51-.47-3-1-4.48-1.48a17.51,17.51,0,0,0-1.92-.34,19.85,19.85,0,0,1,2.17-.65,5.8,5.8,0,0,0,4.47-4c.07-.17,0-.57,0-.59a.91.91,0,0,0-.74,0,3.88,3.88,0,0,0-.92.85A7.47,7.47,0,0,1,64,48.64c-.8.2-1.58.39-2.4.52a42,42,0,0,0-7.89,1.76s-.14,0-.33,0c.28-.17.43-.31.61-.4a61.42,61.42,0,0,1,11.79-5.43A20.26,20.26,0,0,1,76.16,44s.12,0,.38-.14a6.18,6.18,0,0,0-.9-.45,14.94,14.94,0,0,0-6.33-.57,30.77,30.77,0,0,0-9.42,2.55l-.61.17s-.05-.09-.09-.14l3-2a18.74,18.74,0,0,0,6.94-7.77,9.11,9.11,0,0,0,1.09-5.4,5,5,0,0,0-1.75-3.12,1.34,1.34,0,0,0,0,.33,10.6,10.6,0,0,1,0,5.83,12.38,12.38,0,0,1-5.31,7.46c-2.57,1.72-5.24,3.24-7.84,4.89a25.82,25.82,0,0,0-8.8,8.83c-.69,1.22-1.32,2.46-2,3.7a3.12,3.12,0,0,1,.25-.87A10.8,10.8,0,0,0,45.64,53a46.88,46.88,0,0,1,1.7-13.17,18.13,18.13,0,0,1,7.81-11.14A27.38,27.38,0,0,0,57.42,27,6.86,6.86,0,0,0,60,23.39a17.29,17.29,0,0,0,.24-1.79c-.22.1-.28.1-.29.14a3.89,3.89,0,0,0-.25.5A7.56,7.56,0,0,1,57,25.52c-.93.62-1.89,1.23-2.83,1.87-.59.4-1.14.84-1.71,1.25a11.61,11.61,0,0,1,1.89-1.82,9.21,9.21,0,0,0,3.5-4.23,15.26,15.26,0,0,0,.64-7,17.94,17.94,0,0,0-1.78-5.81,8.49,8.49,0,0,0-2.35,3.92,4.06,4.06,0,0,0,1,3.85c.85.92,1.62,1.18,2.48.78a12.08,12.08,0,0,1-1,4.39,12.29,12.29,0,0,1-3.79,4,20.24,20.24,0,0,0-4.71,5,34.88,34.88,0,0,0-3.82,9.26,3.08,3.08,0,0,1-.16.38.4.4,0,0,1-.15,0,23.93,23.93,0,0,1-.12-2.93,21.34,21.34,0,0,1,2.13-8.21c1.42-3.07.62-5.86-1.18-8.67a3.32,3.32,0,0,0-.16.74c.06,1.11,0,2.26.21,3.37A10.85,10.85,0,0,1,45,30.93c-.47,1.41-.9,2.83-1.37,4.23a2.17,2.17,0,0,1-.15.35c-.16-7.27-.33-14.48-.49-21.7H41.93q-.26,10.67-.54,21.29s0,0,0,0c-.17-.47-.3-1-.49-1.42a13.27,13.27,0,0,1-.74-9.2A4.47,4.47,0,0,0,40,21.6a9.38,9.38,0,0,0-2,4.75,9.62,9.62,0,0,0,1.1,4.72,18.62,18.62,0,0,1,1.64,10,3.18,3.18,0,0,1-.12.53c-.4-1.25-.73-2.34-1.13-3.41-1.07-3-2.18-5.94-4.35-8.3a53.09,53.09,0,0,0-5-4.61C28,23.39,27.15,21,27,18c.52.82,1.08.54,1.6.24a3.06,3.06,0,0,0,.81-.59,3.92,3.92,0,0,0,1.13-4,7,7,0,0,0-2.38-3.94,18.73,18.73,0,0,0-1.72,10.63,8.41,8.41,0,0,0,3,5.54c1,.76,1.88,1.56,2.83,2.34-1.3-.68-2.5-1.46-3.69-2.24a8,8,0,0,1-3.46-4,1.65,1.65,0,0,0-.2-.37,1.21,1.21,0,0,0-.21.87,5.39,5.39,0,0,0,1.63,3.33,43.85,43.85,0,0,0,3.73,3.05,17.32,17.32,0,0,1,6.43,7.85,43.06,43.06,0,0,1,2.78,16.88,5.18,5.18,0,0,0,.47,2.49,18.63,18.63,0,0,1,.67,1.81.4.4,0,0,1-.26-.23,26.73,26.73,0,0,0-11-12.35c-2.43-1.46-4.86-2.9-7.23-4.42a12.46,12.46,0,0,1-5.31-6.66,11.1,11.1,0,0,1-.23-7.07,3.32,3.32,0,0,0-.74.63,5.83,5.83,0,0,0-.91,5,16.76,16.76,0,0,0,4.27,7.51,40.3,40.3,0,0,0,6.49,5c.16.12.33.24.49.38a.44.44,0,0,1-.35,0,33.5,33.5,0,0,0-10.55-2.88,14.23,14.23,0,0,0-5.91.5,4.87,4.87,0,0,0-.87.47c.17.17.26.22.34.19a16.78,16.78,0,0,1,7.72.38,55.48,55.48,0,0,1,13.43,5.52c.56.29,1.08.62,1.62.95a.46.46,0,0,0-.07.14c-.68-.21-1.34-.47-2-.63-2.19-.45-4.39-.9-6.6-1.28a9.61,9.61,0,0,1-5.79-3c-.12-.12-.23-.28-.38-.33a7.68,7.68,0,0,0-1-.26,2.81,2.81,0,0,0,.05.92,5.55,5.55,0,0,0,4,3.6c.87.25,1.75.47,2.64.72A20,20,0,0,0,17,52.2a14.47,14.47,0,0,1-7.1.89,1.68,1.68,0,0,0-.45,0,1.21,1.21,0,0,0,0,.19c2.2,1.39,4.61,1,7,.63,0,.06.07.12.11.17s-.21.07-.28.12a6.81,6.81,0,0,0-2.6,4.32c-.06.31,0,.92.17,1,.54.14.52-.41.64-.73a9.15,9.15,0,0,1,2.14-3.66A10.36,10.36,0,0,1,27,52.51c5.74,1.58,9,5.73,10.65,11.23a27.86,27.86,0,0,1,.73,9.56,12.29,12.29,0,0,1-1.14,4.91c-.14.27-.3.55-.45.81a86.24,86.24,0,0,0-8.52-3.23c2.51,1.6,5.08,3,7.72,4.36q3,1.56,6.09,3c.08-.17.19-.34.28-.52l.2,0,.28.5c2-.95,4.06-1.92,6.06-3,2.63-1.34,5.23-2.78,7.75-4.38A86.62,86.62,0,0,0,48.12,79a10.52,10.52,0,0,1-1.4-4.25,45.78,45.78,0,0,1-.09-7.22,17.16,17.16,0,0,1,3.16-9.28c2.91-4,6.7-6.5,11.87-6.09a9.56,9.56,0,0,1,7.54,4.18A22.29,22.29,0,0,1,70.45,59c.11.22.38.36.57.54a2.59,2.59,0,0,0,.23-.77,6,6,0,0,0-1.35-3.21C69.45,55.05,68.93,54.54,68.42,54Z"/><path class="cls-1" d="M116,14.63,99.22,56.34h7.53l7.85-20.27q1.49-4,3-8.31c.62-1.74,1.28-3.62,2-5.61.18,2,.35,3.9.53,5.65q.42,4.35.86,8.27l2.52,20.27h7.19l-6-41.71Z"/><path class="cls-1" d="M143.54,48.72q-.27-2.92-.52-5.55-.42-4.44-.87-8.27L139.5,14.63h-7.15l6,41.71H147l2.64-6.62-5.41-2.95C144,47.4,143.76,48.06,143.54,48.72Z"/><path class="cls-1" d="M171.22,14.63,154.44,56.34H162l7.85-20.27q1.5-4,3-8.31c.62-1.74,1.28-3.62,2-5.61.18,2,.36,3.9.53,5.65q.42,4.35.86,8.27l2.52,20.27h7.2l-6-41.71Z"/><path class="cls-1" d="M214.35,14.63l-4.66,7q-1,1.52-1.83,2.94c-.58.95-1.14,1.9-1.68,2.83-.19.31-.38.62-.56.93-.1-.31-.21-.62-.31-.93-.3-.93-.62-1.88-.94-2.83s-.67-1.93-1.05-2.94l-2.62-7h-7.49l8,20.38L186.78,56.34h7.81l5.84-8.79,1.6-2.48c.5-.77,1-1.54,1.46-2.31l.78-1.28c.15.43.31.87.45,1.28.26.77.54,1.54.82,2.31l.93,2.48,3.44,8.79h7.63L208.8,34.78,222,14.63Z"/><polygon class="cls-1" points="254.67 32.52 240.16 32.52 241.52 21.93 257.19 21.93 258.15 14.63 235.77 14.63 230.36 56.34 237.08 56.34 239.25 39.63 253.75 39.63 254.67 32.52"/><path class="cls-1" d="M267.05,14.63,250.27,56.34h7.53l7.85-20.27q1.5-4,3-8.31c.62-1.74,1.28-3.62,2-5.61.18,2,.36,3.9.53,5.65q.42,4.35.86,8.27l2.52,20.27h7.2l-6-41.71Z"/><path class="cls-1" d="M309.17,16.29A10.69,10.69,0,0,0,303,14.63h-12.9l-5.41,41.71h6.72l1.9-14.64h6l4,14.65h7l-4.53-16.21.11-.05a13.21,13.21,0,0,0,4.84-4.65,18,18,0,0,0,2.43-7.14,16.15,16.15,0,0,0-.53-7.26A9,9,0,0,0,309.17,16.29Zm-2.62,11.92a9.28,9.28,0,0,1-1.14,3.47A6.11,6.11,0,0,1,303.12,34a6.5,6.5,0,0,1-3.25.8h-5.64l1.68-13h5.65a4.84,4.84,0,0,1,4.06,1.69A6.22,6.22,0,0,1,306.55,28.21Z"/><path class="cls-1" d="M336.89,33.94c-.32.88-.71,2-1.17,3.28s-.93,2.68-1.43,4.13c-.43,1.24-.82,2.42-1.2,3.58-.09-1.11-.18-2.26-.29-3.45-.13-1.46-.26-2.84-.38-4.15s-.25-2.4-.36-3.27l-2.85-19.43h-9.89l-5.4,41.71h6.63l2.54-19.74c.13-.93.27-2.05.41-3.35s.3-2.71.45-4.19.31-3,.48-4.51l.06-.52c.08.73.15,1.47.23,2.22q.31,3.16.62,5.86c.2,1.8.38,3.26.53,4.38l3,19.85h5.49l8.08-19.74q.48-1.26,1.17-3.12t1.47-4.08c.53-1.49,1.07-3,1.62-4.58.13-.35.24-.68.37-1l-.09.62c-.23,1.52-.45,3-.68,4.52s-.44,2.9-.63,4.2-.34,2.43-.48,3.36l-2.56,19.85h6.63l5.41-41.71h-10Z"/><path class="cls-1" d="M365.81,23.6A6,6,0,0,1,368,21.77a6.79,6.79,0,0,1,3-.67A4.84,4.84,0,0,1,375,22.7a6.34,6.34,0,0,1,1.16,4.53h6.3a14.36,14.36,0,0,0-.76-7.06,9.46,9.46,0,0,0-3.81-4.58A11.93,11.93,0,0,0,371.55,14a13.65,13.65,0,0,0-6.48,1.53,13,13,0,0,0-4.73,4.28A14.86,14.86,0,0,0,358,26.22c-.4,3.12.08,5.65,1.45,7.61A11.63,11.63,0,0,0,366,38.09l3.35,1a13.15,13.15,0,0,1,3.08,1.31A4.07,4.07,0,0,1,374,42.12a4.16,4.16,0,0,1,.27,2.32,5.78,5.78,0,0,1-1.13,2.86,6.42,6.42,0,0,1-2.43,1.92,8.08,8.08,0,0,1-3.37.68,6.3,6.3,0,0,1-3.36-.84,4.8,4.8,0,0,1-2-2.42,8.12,8.12,0,0,1-.37-3.82h-6.5a15.79,15.79,0,0,0,.68,7.63,9.37,9.37,0,0,0,4.05,4.85,13.41,13.41,0,0,0,7,1.68,15.31,15.31,0,0,0,6.93-1.49,12.35,12.35,0,0,0,4.83-4.3A15.68,15.68,0,0,0,381,44.53a14.32,14.32,0,0,0-.09-4.47,8.79,8.79,0,0,0-1.47-3.47A9.32,9.32,0,0,0,376.6,34a17,17,0,0,0-4.15-1.76l-3-.9a13.07,13.07,0,0,1-2.9-1.2A3.9,3.9,0,0,1,365,28.56a4,4,0,0,1-.28-2.26A5.74,5.74,0,0,1,365.81,23.6Z"/><path class="cls-1" d="M159.76,28.87c-.32-3.6-.69-7.19-1-10.55-1.31,1.44-2.77,3.11-4.3,4.72a61.35,61.35,0,0,0-5.17,5.42c-3,4.1-3.13,8.71-1.46,13.38.3.85.7,1.86,2.15,1.42A13.92,13.92,0,0,0,159.76,28.87Z"/></g></g></svg>